<svg version="1.2" baseProfile="tiny-ps" xmlns="http://www.w3.org/2000/svg" viewBox="0 0 18 12" width="40" height="40">
	<g>
		<path id="Arrow" d="M2.32 6.03L7.56 0.88C7.8 0.64 7.8 0.25 7.56 0.01C7.31 -0.23 6.92 -0.23 6.68 0.01L1.45 5.16M2.73 5.03L16.42 5.03C16.76 5.03 17.03 5.3 17.03 5.64C17.03 5.98 16.76 6.25 16.42 6.25L2.73 6.25C2.4 6.25 2.12 5.98 2.12 5.64C2.12 5.3 2.4 5.03 2.73 5.03ZM0.98 5.63L6.68 11.24C6.92 11.48 7.31 11.48 7.56 11.24C7.8 11 7.8 10.61 7.55 10.37L1.86 4.77L0.98 5.63Z" />
	</g>
</svg>