<svg xmlns="http://www.w3.org/2000/svg" viewBox="0 0 33 33" width="33" height="33">
	<g id="Menu-RIGHT">
		<g id="Хочу придбати">
			<path id="Shape 527" class="shp0" d="M33.01 16.51C33.01 12.1 31.29 7.96 28.18 4.85C25.06 1.73 20.92 0.01 16.51 0.01C12.1 0.01 7.96 1.73 4.84 4.85C1.73 7.96 0.01 12.1 0.01 16.51C0.01 20.92 1.73 25.06 4.84 28.18C7.96 31.29 12.1 33.01 16.51 33.01C20.92 33.01 25.06 31.29 28.18 28.18C31.29 25.06 33.01 20.92 33.01 16.51ZM16.51 31.23C16.19 31.23 15.86 31.22 15.54 31.2C15.45 28.29 14.99 24.13 13.61 18.68C14.36 18.56 15.1 18.44 15.83 18.33C16.3 20.86 17.4 23.23 19.01 25.22C20.35 26.88 22.03 28.25 23.92 29.23C21.7 30.54 19.16 31.23 16.51 31.23ZM7.63 28.25C8.37 25.99 8.57 23.57 8.22 21.19C8.14 20.65 8.03 20.12 7.9 19.6C9.23 19.38 10.54 19.17 11.85 18.96C13.17 24.16 13.64 28.15 13.75 30.97C11.53 30.55 9.44 29.63 7.63 28.25ZM6.1 26.92C4.3 25.11 3.02 22.92 2.35 20.53C3.61 20.31 4.88 20.1 6.14 19.89C6.27 20.4 6.38 20.92 6.46 21.45C6.73 23.3 6.63 25.18 6.16 26.97C6.14 26.95 6.12 26.94 6.1 26.92ZM1.79 16.51C1.79 15.42 1.91 14.35 2.14 13.32C3.63 14.68 4.8 16.34 5.56 18.18C4.36 18.38 3.17 18.58 1.97 18.79C1.85 18.04 1.79 17.28 1.79 16.51ZM6.1 6.1C6.44 5.77 6.78 5.46 7.14 5.16C7.78 6.64 9 9.61 10.21 13.33C10.65 14.69 11.04 15.99 11.39 17.23C10.06 17.44 8.71 17.66 7.36 17.88C6.4 15.38 4.8 13.17 2.69 11.44C3.41 9.46 4.57 7.64 6.1 6.1ZM16.51 1.79C18.42 1.79 20.28 2.16 22 2.85C19.96 4.33 18.31 6.28 17.17 8.56C16.1 10.72 15.56 13.06 15.56 15.43C15.56 15.81 15.57 16.19 15.6 16.56C14.79 16.69 13.98 16.82 13.15 16.95C12.79 15.62 12.37 14.22 11.89 12.76C10.54 8.6 9.2 5.42 8.62 4.08C10.96 2.59 13.67 1.79 16.51 1.79ZM31.06 14.26C27.2 14.81 22.49 15.5 17.36 16.29C17.21 13.89 17.69 11.52 18.77 9.35C19.92 7.04 21.67 5.11 23.85 3.75C24.96 4.39 25.99 5.17 26.92 6.1C29.16 8.35 30.59 11.18 31.06 14.26ZM20.39 24.1C18.98 22.35 18.01 20.27 17.59 18.06C22.68 17.27 27.38 16.58 31.22 16.03C31.23 16.19 31.23 16.35 31.23 16.51C31.23 20.44 29.7 24.14 26.92 26.92C26.5 27.33 26.07 27.72 25.62 28.08C23.59 27.19 21.79 25.82 20.39 24.1Z" />
		</g>
	</g>
</svg>