<svg xmlns="http://www.w3.org/2000/svg" viewBox="0 0 31 29" width="31" height="29">
	<style>
		tspan { white-space:pre }
		.shp0 { fill: #ffffff } 
	</style>
	<g id="Menu-RIGHT">
		<g id="Корзина">
			<g id="basket">
				<path id="Shape 514 copy" class="shp0" d="M28.64 9.93L27.53 9.93L22.6 0.5C22.36 0.05 21.81 -0.12 21.37 0.12C20.93 0.35 20.76 0.91 20.99 1.36L25.48 9.93L5.65 9.93L10.14 1.36C10.37 0.91 10.2 0.35 9.76 0.12C9.32 -0.12 8.77 0.05 8.53 0.5L3.6 9.93L2.36 9.93C1.07 9.93 0.01 11 0.01 12.32C0.01 13.63 1.07 14.7 2.36 14.7L2.43 14.7C2.43 14.72 2.43 14.73 2.44 14.74L4.33 25.5C4.68 27.52 6.41 28.99 8.44 28.99L22.69 28.99C24.72 28.99 26.45 27.52 26.8 25.5L28.7 14.74C28.7 14.73 28.7 14.71 28.7 14.7C29.97 14.66 30.99 13.61 30.99 12.32C30.99 11 29.93 9.93 28.64 9.93ZM25.02 25.18C24.81 26.32 23.84 27.15 22.69 27.15L8.44 27.15C7.29 27.15 6.32 26.32 6.12 25.18L4.27 14.7L26.86 14.7L25.02 25.18ZM28.64 12.86L2.36 12.86C2.07 12.86 1.83 12.62 1.83 12.32C1.83 12.02 2.07 11.77 2.36 11.77L28.64 11.77C28.93 11.77 29.17 12.02 29.17 12.32C29.17 12.62 28.93 12.86 28.64 12.86ZM15.46 15.98C14.96 15.98 14.55 16.39 14.55 16.9L14.55 24.95C14.55 25.46 14.96 25.87 15.46 25.87C15.96 25.87 16.37 25.46 16.37 24.95L16.37 16.9C16.37 16.39 15.96 15.98 15.46 15.98ZM12.36 24.8L11.03 16.75C10.94 16.24 10.47 15.91 9.98 15.99C9.49 16.08 9.15 16.55 9.24 17.05L10.57 25.11C10.65 25.56 11.03 25.87 11.47 25.87C11.52 25.87 11.57 25.87 11.62 25.86C12.11 25.78 12.45 25.3 12.36 24.8ZM20.88 15.99C20.38 15.91 19.92 16.24 19.83 16.75L18.49 24.8C18.41 25.3 18.74 25.78 19.24 25.86C19.29 25.87 19.34 25.87 19.39 25.87C19.82 25.87 20.21 25.56 20.28 25.11L21.62 17.05C21.71 16.55 21.37 16.08 20.88 15.99Z" />
			</g>
		</g>
	</g>
</svg>