<svg version="1.2" baseProfile="tiny-ps" xmlns="http://www.w3.org/2000/svg" viewBox="0 0 16 17" width="16" height="17">
	<g id="Viber">
		<path id="Icon"  d="M14 7.18C14.01 4.98 12.11 2.97 9.75 2.69C9.7 2.69 9.65 2.68 9.6 2.67C9.48 2.65 9.36 2.63 9.24 2.63C8.75 2.63 8.62 2.96 8.59 3.16C8.56 3.36 8.59 3.52 8.68 3.64C8.84 3.86 9.13 3.9 9.35 3.93C9.42 3.94 9.48 3.95 9.53 3.96C11.65 4.42 12.37 5.15 12.72 7.22C12.73 7.27 12.73 7.33 12.73 7.4C12.75 7.64 12.78 8.16 13.34 8.16L13.34 8.16C13.39 8.16 13.44 8.15 13.49 8.14C14.02 8.07 14 7.6 13.99 7.37C13.99 7.31 13.99 7.25 13.99 7.21C14 7.2 14 7.19 14 7.18ZM9.1 1.89C9.16 1.89 9.22 1.89 9.27 1.9C12.75 2.43 14.36 4.05 14.8 7.49C14.81 7.55 14.81 7.62 14.81 7.7C14.81 7.97 14.82 8.53 15.44 8.54L15.46 8.54C15.65 8.54 15.8 8.48 15.91 8.37C16.1 8.17 16.09 7.88 16.08 7.65C16.07 7.59 16.07 7.54 16.07 7.49C16.12 3.97 13.01 0.77 9.42 0.65C9.41 0.65 9.39 0.65 9.38 0.65C9.37 0.66 9.36 0.66 9.34 0.66C9.3 0.66 9.26 0.65 9.21 0.65C9.15 0.65 9.09 0.64 9.02 0.64C8.45 0.64 8.35 1.04 8.33 1.28C8.3 1.83 8.84 1.87 9.1 1.89ZM14.63 11.94C14.56 11.89 14.48 11.83 14.41 11.78C14.03 11.47 13.62 11.2 13.23 10.93C13.15 10.87 13.07 10.82 12.99 10.76C12.49 10.42 12.04 10.25 11.61 10.25C11.04 10.25 10.54 10.56 10.13 11.17C9.94 11.45 9.72 11.58 9.45 11.58C9.29 11.58 9.1 11.53 8.9 11.44C7.29 10.72 6.13 9.62 5.47 8.16C5.15 7.46 5.25 7 5.82 6.62C6.14 6.41 6.73 6.01 6.69 5.26C6.64 4.4 4.71 1.81 3.89 1.51C3.55 1.39 3.18 1.39 2.81 1.51C1.87 1.82 1.2 2.36 0.87 3.08C0.54 3.77 0.56 4.59 0.91 5.43C1.92 7.89 3.35 10.02 5.16 11.79C6.92 13.51 9.09 14.92 11.6 15.99C11.83 16.08 12.07 16.13 12.24 16.17C12.3 16.19 12.35 16.2 12.39 16.21C12.41 16.21 12.43 16.21 12.45 16.21L12.47 16.21L12.47 16.21C13.65 16.21 15.07 15.16 15.51 13.95C15.89 12.89 15.19 12.36 14.63 11.94ZM9.62 4.68C9.42 4.69 9 4.7 8.85 5.12C8.78 5.32 8.79 5.49 8.88 5.63C9 5.83 9.24 5.9 9.46 5.93C10.25 6.06 10.66 6.49 10.74 7.29C10.78 7.66 11.04 7.92 11.36 7.92L11.36 7.92C11.39 7.92 11.41 7.92 11.44 7.91C11.83 7.87 12.02 7.58 12.01 7.07C12.01 6.53 11.73 5.92 11.24 5.43C10.75 4.95 10.16 4.67 9.62 4.68Z" />
	</g>
</svg>