<svg xmlns="http://www.w3.org/2000/svg" viewBox="0 0 16 16" width="16" height="16">
	<g id="Menu-RIGHT">
		<g id="Call">
			<path id="icon" class="shp0" d="M15.57 11.79L13.58 9.8C13.06 9.26 12.13 9.26 11.6 9.8L11.27 10.13L15.24 14.11L15.57 13.78C16.12 13.23 16.11 12.33 15.57 11.79ZM10.59 10.77C10.17 11.1 9.58 11.08 9.2 10.7L5.28 6.76C4.89 6.38 4.88 5.78 5.2 5.36L1.25 1.39C-0.46 3.38 -0.39 6.38 1.49 8.27L7.69 14.5C9.5 16.31 12.45 16.55 14.55 14.74L10.59 10.77ZM6.18 2.36L4.19 0.37C3.67 -0.16 2.74 -0.16 2.21 0.37L1.88 0.7L5.85 4.68L6.18 4.35C6.73 3.8 6.72 2.91 6.18 2.36Z" />
		</g>
	</g>
</svg>