<svg version="1.2" baseProfile="tiny-ps" xmlns="http://www.w3.org/2000/svg" viewBox="0 0 83 83" width="83" height="83">
	<path id="cash" fill-rule="evenodd" d="M77.5 41.18L75.89 41.83C75.97 42.29 76.02 42.76 76.02 43.23L76.02 74.36C76.01 79.13 72.15 83 67.38 83.01L8.63 83.01C3.86 83 0 79.13 -0.01 74.36L-0.01 43.23C0 38.45 3.86 34.59 8.63 34.58L11.55 34.58L10.28 31.17C8.59 26.71 10.76 21.71 15.17 19.9L61.52 0.66C61.59 0.64 61.65 0.61 61.72 0.59C66.28 -1.17 71.4 1.1 73.16 5.66L82.43 29.8C84.14 34.3 81.95 39.35 77.5 41.18ZM2.79 42.88L73.22 42.88C73.04 39.78 70.48 37.36 67.38 37.35L8.63 37.35C5.53 37.36 2.97 39.78 2.79 42.88ZM24.42 33.77L33.66 29.14L31.76 24.39L22.52 29.01L24.42 33.77ZM73.25 56.72L2.75 56.72L2.75 74.36C2.76 77.61 5.39 80.24 8.63 80.24L67.38 80.24C70.62 80.24 73.25 77.61 73.25 74.36L73.25 56.72ZM73.25 45.65L2.75 45.65L2.75 53.95L73.25 53.95L73.25 45.65ZM79.85 30.8L70.58 6.66C70.56 6.61 70.54 6.57 70.52 6.52C69.23 3.41 65.68 1.94 62.58 3.23L16.23 22.46C13.2 23.71 11.71 27.14 12.87 30.21L14.5 34.58L21.77 34.58L19.48 28.86C19.22 28.19 19.51 27.43 20.15 27.11L31.87 21.24C31.9 21.22 31.94 21.21 31.97 21.19C32.68 20.91 33.49 21.25 33.77 21.96L36.7 29.3C36.97 29.96 36.68 30.73 36.04 31.05L28.98 34.58L67.38 34.58C70.59 34.58 73.53 36.36 75.02 39.21L76.46 38.62C79.52 37.36 81.03 33.9 79.85 30.8ZM46.71 65C49.01 61.04 54.09 59.69 58.05 61.99C59.31 61.26 60.74 60.87 62.2 60.87C63.67 60.87 65.11 61.25 66.38 61.99C70.34 64.3 71.69 69.38 69.39 73.34C67.09 77.31 62.01 78.65 58.05 76.35C55.47 77.85 52.29 77.85 49.72 76.35C45.75 74.05 44.41 68.96 46.71 65ZM60.36 74.37C60.95 74.58 61.57 74.7 62.2 74.71C65.25 74.71 67.72 72.23 67.72 69.17C67.72 66.11 65.25 63.64 62.2 63.64C61.57 63.64 60.95 63.76 60.36 63.97C62.81 67.01 62.81 71.34 60.36 74.37ZM58.05 72.79C59.89 70.73 59.89 67.61 58.05 65.55C56.21 67.61 56.21 70.73 58.05 72.79ZM48.37 69.17C48.37 72.23 50.85 74.71 53.9 74.71C54.53 74.7 55.15 74.58 55.74 74.37C53.29 71.34 53.29 67.01 55.74 63.97C55.15 63.76 54.53 63.64 53.9 63.64C50.85 63.64 48.37 66.11 48.37 69.17ZM59.42 31.07L58.3 28.54L71.49 22.68L72.61 25.21L59.42 31.07ZM49.5 25.62L68.54 16.82L69.7 19.33L50.65 28.13L49.5 25.62ZM55.53 63.16C56.28 63.12 57 63 57 63L55.53 63.16ZM54 63C53.42 62.6 48 64 48 64L55.53 63.16C54.91 63.2 54.26 63.18 54 63Z" />
</svg>