<svg xmlns="http://www.w3.org/2000/svg" viewBox="0 0 20 19" width="20" height="19">
	<style>
		tspan { white-space:pre }
		.shp0 { fill: #eaeaea } 
	</style>
	<g id="Menu-RIGHT">
		<g id="share">
			<g id="hover">
				<g id="соц.мережі">
					<path id="IN" class="shp0" d="M19.99 19.01L19.99 19.01L19.99 19.01L19.99 12.04C19.99 8.63 19.22 6 15.03 6C13.01 6 11.66 7.05 11.1 8.05L11.04 8.05L11.04 6.32L7.07 6.32L7.07 19.01L11.21 19.01L11.21 12.72C11.21 11.07 11.54 9.47 13.69 9.47C15.82 9.47 15.85 11.36 15.85 12.83L15.85 19.01L19.99 19.01ZM0.32 6.32L4.47 6.32L4.47 19.01L0.32 19.01L0.32 6.32ZM2.39 0.01C1.07 0.01 -0.01 1.03 -0.01 2.29C-0.01 3.55 1.07 4.59 2.39 4.59C3.72 4.59 4.8 3.55 4.8 2.29C4.8 1.03 3.72 0.01 2.39 0.01Z" />
				</g>
			</g>
		</g>
	</g>
</svg>