<svg xmlns="http://www.w3.org/2000/svg" viewBox="0 0 16 16" width="16" height="16">
	<g id="Menu-RIGHT">
		<g id="Inst">
			<path id="Ellipse 4 copy" class="shp0" d="M15.59 13.24C15.17 14.31 14.32 15.16 13.25 15.58C12.74 15.78 12.16 15.91 11.31 15.95C10.45 15.99 10.18 16 8.01 16C5.84 16 5.56 15.99 4.71 15.95C3.86 15.91 3.28 15.78 2.77 15.58C2.24 15.38 1.75 15.06 1.35 14.66C0.95 14.26 0.63 13.77 0.43 13.24C0.23 12.73 0.1 12.15 0.06 11.3C0.02 10.44 0.01 10.17 0.01 8C0.01 5.83 0.02 5.55 0.06 4.7C0.1 3.85 0.23 3.27 0.43 2.76C0.63 2.22 0.95 1.74 1.35 1.34C1.75 0.93 2.24 0.62 2.77 0.42C3.28 0.22 3.86 0.08 4.71 0.05C5.56 0.01 5.84 0 8.01 0C10.18 0 10.45 0.01 11.31 0.05C12.16 0.08 12.74 0.22 13.25 0.42C13.78 0.62 14.27 0.93 14.67 1.34C15.07 1.74 15.39 2.22 15.59 2.76C15.79 3.27 15.92 3.85 15.96 4.7C16 5.55 16.01 5.83 16.01 8C16.01 10.17 16 10.44 15.96 11.3C15.92 12.15 15.79 12.73 15.59 13.24ZM8.01 3.89C5.74 3.89 3.9 5.73 3.9 8C3.9 10.27 5.74 12.11 8.01 12.11C10.28 12.11 12.12 10.27 12.12 8C12.12 5.73 10.28 3.89 8.01 3.89ZM12.76 2.25C12.21 2.25 11.76 2.7 11.76 3.25C11.76 3.8 12.21 4.25 12.76 4.25C13.31 4.25 13.76 3.8 13.76 3.25C13.76 2.7 13.31 2.25 12.76 2.25ZM8.01 10.13C6.83 10.13 5.88 9.18 5.88 8C5.88 6.82 6.83 5.87 8.01 5.87C9.19 5.87 10.14 6.82 10.14 8C10.14 9.18 9.19 10.13 8.01 10.13Z" />
		</g>
	</g>
</svg>