<svg version="1.2" baseProfile="tiny-ps" xmlns="http://www.w3.org/2000/svg" viewBox="0 0 13 16" width="13" height="16">
	<path id="rubbish-bin" d="M11.74 1.99L8.99 1.99L8.99 1.49C8.99 0.67 8.32 -0.01 7.5 -0.01L5.5 -0.01C4.67 -0.01 4 0.67 4 1.49L4 1.99L1.25 1.99C0.56 1.99 0 2.56 0 3.25L0 5C0 5.27 0.23 5.5 0.5 5.5L0.78 5.5L1.21 14.57C1.25 15.38 1.9 16 2.7 16L10.29 16C11.09 16 11.75 15.38 11.78 14.57L12.22 5.5L12.49 5.5C12.76 5.5 12.99 5.27 12.99 5L12.99 3.25C12.99 2.56 12.43 1.99 11.74 1.99L11.74 1.99ZM5 1.49C5 1.22 5.22 0.99 5.5 0.99L7.5 0.99C7.77 0.99 7.99 1.22 7.99 1.49L7.99 1.99L5 1.99L5 1.49ZM1 3.25C1 3.11 1.12 3 1.25 3L11.74 3C11.88 3 11.99 3.11 11.99 3.25L11.99 4.5C11.84 4.5 1.64 4.5 1 4.5L1 3.25ZM10.79 14.53C10.77 14.79 10.56 15 10.29 15L2.7 15C2.44 15 2.22 14.79 2.21 14.53L1.78 5.5L11.22 5.5L10.79 14.53ZM6.5 14C6.77 14 7 13.78 7 13.5L7 7C7 6.72 6.77 6.5 6.5 6.5C6.22 6.5 6 6.72 6 7L6 13.5C6 13.78 6.22 14 6.5 14ZM8.99 14C9.27 14 9.49 13.78 9.49 13.5L9.49 7C9.49 6.72 9.27 6.5 8.99 6.5C8.72 6.5 8.49 6.72 8.49 7L8.49 13.5C8.49 13.78 8.72 14 8.99 14ZM4 14C4.28 14 4.5 13.78 4.5 13.5L4.5 7C4.5 6.72 4.28 6.5 4 6.5C3.72 6.5 3.5 6.72 3.5 7L3.5 13.5C3.5 13.78 3.72 14 4 14Z" />
</svg>