<svg xmlns="http://www.w3.org/2000/svg" viewBox="0 0 14 16" width="14" height="16">

	<g id="Menu-RIGHT">
		<g id="share">
			<path id="icon" class="shp0" d="M11.46 10.66C10.73 10.66 10.07 11 9.6 11.52L4.98 8.76C5.05 8.52 5.1 8.26 5.1 7.99C5.1 7.72 5.05 7.47 4.98 7.22L9.6 4.46C10.07 4.99 10.73 5.32 11.46 5.32C12.87 5.32 14.01 4.13 14.01 2.65C14.01 1.18 12.87 -0.01 11.46 -0.01C10.06 -0.01 8.92 1.18 8.92 2.65C8.92 2.87 8.95 3.08 9 3.28L4.32 6.08C3.87 5.61 3.24 5.32 2.56 5.32C1.15 5.32 0.01 6.52 0.01 7.99C0.01 9.46 1.15 10.66 2.56 10.66C3.24 10.66 3.87 10.37 4.32 9.91L9 12.7C8.95 12.9 8.92 13.11 8.92 13.33C8.92 14.8 10.06 16 11.46 16C12.87 16 14.01 14.8 14.01 13.33C14.01 11.86 12.87 10.66 11.46 10.66Z" />
		</g>
	</g>
</svg>