<svg version="1.2" baseProfile="tiny-ps" xmlns="http://www.w3.org/2000/svg" viewBox="0 0 18 16" width="18" height="16">
	<g id="Telegram">
		<path id="Icon" fill-rule="evenodd" d="M17.42 1.21L14.5 14.98C14.43 15.31 14.04 15.45 13.77 15.26L9.78 12.42C9.54 12.25 9.21 12.26 8.98 12.44L6.77 14.21C6.51 14.42 6.12 14.3 6.02 13.99L4.49 9.15L0.52 7.7C0.12 7.55 0.12 6.99 0.52 6.84L16.79 0.68C17.14 0.55 17.49 0.85 17.42 1.21ZM13.53 3.7L5.78 8.38C5.48 8.56 5.34 8.91 5.44 9.24L6.27 12.13C6.33 12.33 6.64 12.31 6.66 12.1L6.88 10.52C6.92 10.22 7.07 9.94 7.29 9.74L13.69 3.91C13.81 3.8 13.67 3.61 13.53 3.7Z" />
	</g>
</svg>