<svg version="1.2" baseProfile="tiny-ps" xmlns="http://www.w3.org/2000/svg" viewBox="0 0 70 86" width="70" height="86">
		<path id="Shape 824" d="M61.34 34.65L29.99 34.65C31.44 32.95 32.32 30.74 32.32 28.33C32.32 23.01 28.07 18.68 22.84 18.68C17.61 18.68 13.35 23.01 13.35 28.33C13.35 30.74 14.23 32.95 15.68 34.65L8.2 34.65C3.68 34.65 0 38.39 0 42.98L0 52.82C0 53.74 0.73 54.49 1.64 54.49C2.55 54.49 3.28 53.74 3.28 52.82L3.28 42.98C3.28 40.22 5.49 37.98 8.2 37.98L54.12 37.98C56.84 37.98 59.04 40.22 59.04 42.98L59.04 51.99L41.99 51.99C37.46 51.99 33.79 55.73 33.79 60.32C33.79 64.92 37.46 68.66 41.99 68.66L59.04 68.66L59.04 77.66C59.04 80.42 56.84 82.66 54.12 82.66L8.2 82.66C5.49 82.66 3.28 80.42 3.28 77.66L3.28 67.81C3.28 66.89 2.55 66.15 1.64 66.15C0.73 66.15 0 66.89 0 67.81L0 77.66C0 82.26 3.68 86 8.2 86L61.34 86C65.86 86 69.54 82.26 69.54 77.66L69.54 42.98C69.54 38.39 65.86 34.65 61.34 34.65L61.34 34.65ZM22.84 22.02C26.26 22.02 29.04 24.85 29.04 28.33C29.04 31.8 26.26 34.63 22.84 34.63C19.42 34.63 16.63 31.8 16.63 28.33C16.63 24.85 19.42 22.02 22.84 22.02ZM60.68 37.98L61.34 37.98C64.05 37.98 66.26 40.22 66.26 42.98L66.26 51.99L62.32 51.99L62.32 42.98C62.32 41.11 61.71 39.38 60.68 37.98L60.68 37.98ZM37.07 60.32C37.07 57.56 39.27 55.32 41.99 55.32L66.26 55.32L66.26 65.32L41.99 65.32C39.27 65.32 37.07 63.08 37.07 60.32ZM61.34 82.66L60.68 82.66C61.71 81.27 62.32 79.54 62.32 77.66L62.32 68.66L66.26 68.66L66.26 77.66C66.26 80.42 64.05 82.66 61.34 82.66ZM41.57 58.66C41.13 58.66 40.71 58.83 40.4 59.14C40.1 59.45 39.93 59.88 39.93 60.32C39.93 60.76 40.1 61.19 40.4 61.5C40.71 61.81 41.13 61.99 41.57 61.99C42 61.99 42.42 61.81 42.73 61.5C43.03 61.19 43.21 60.76 43.21 60.32C43.21 59.88 43.03 59.45 42.73 59.14C42.42 58.83 42 58.66 41.57 58.66ZM46.7 20.41C51.93 20.41 56.19 16.08 56.19 10.77C56.19 5.45 51.93 1.12 46.7 1.12C41.47 1.12 37.22 5.45 37.22 10.77C37.22 16.08 41.47 20.41 46.7 20.41ZM46.7 4.46C50.12 4.46 52.91 7.29 52.91 10.77C52.91 14.24 50.12 17.07 46.7 17.07C43.28 17.07 40.5 14.24 40.5 10.77C40.5 7.29 43.28 4.46 46.7 4.46ZM30.68 16.89C31.59 16.89 32.32 16.15 32.32 15.23L32.32 2.12C32.32 1.2 31.59 0.46 30.68 0.46C29.78 0.46 29.04 1.2 29.04 2.12L29.04 15.23C29.04 16.15 29.78 16.89 30.68 16.89ZM22.81 11.13C23.72 11.13 24.45 10.38 24.45 9.46L24.45 2.12C24.45 1.2 23.72 0.46 22.81 0.46C21.9 0.46 21.17 1.2 21.17 2.12L21.17 9.46C21.17 10.38 21.9 11.13 22.81 11.13ZM1.64 61.99C2.07 61.99 2.49 61.81 2.8 61.5C3.1 61.19 3.28 60.76 3.28 60.32C3.28 59.88 3.1 59.45 2.8 59.14C2.49 58.83 2.07 58.66 1.64 58.66C1.21 58.66 0.79 58.83 0.48 59.14C0.18 59.45 0 59.88 0 60.32C0 60.76 0.18 61.19 0.48 61.5C0.79 61.81 1.21 61.99 1.64 61.99Z" />
</svg>