<svg xmlns="http://www.w3.org/2000/svg" viewBox="0 0 25 16" width="25" height="16">
	<style>
		tspan { white-space:pre }
		.shp0 { fill: #eaeaea } 
	</style>
	<g id="Menu-RIGHT">
		<g id="share">
			<g id="hover">
				<g id="соц.мережі">
					<path id="G" class="shp0" d="M22.74 4.81L20.46 4.81L20.46 7.12L18.19 7.12L18.19 9.45L20.46 9.45L20.46 11.77L22.74 11.77L22.74 9.45L25.01 9.45L25.01 7.12L22.74 7.12L22.74 4.81ZM7.82 15.99C12.33 15.99 15.32 12.75 15.32 8.19C15.32 7.66 15.27 7.26 15.2 6.86L7.82 6.86L7.82 9.6L12.26 9.6C12.08 10.77 10.91 13.04 7.82 13.04C5.16 13.04 2.99 10.79 2.99 8C2.99 5.21 5.16 2.95 7.82 2.95C9.35 2.95 10.36 3.62 10.93 4.19L13.06 2.11C11.69 0.8 9.93 0.01 7.82 0.01C3.51 0.01 0.01 3.59 0.01 8C0.01 12.41 3.51 15.99 7.82 15.99L7.82 15.99Z" />
				</g>
			</g>
		</g>
	</g>
</svg>