<svg version="1.2" baseProfile="tiny-ps" xmlns="http://www.w3.org/2000/svg" viewBox="0 0 72 81" width="72" height="81">
	<path id="Shape 823" d="M70.39 59.41C68.99 56.62 66.75 54.35 63.99 52.93L63.99 4.04C63.99 1.8 62.2 -0.01 59.99 -0.01L18.66 -0.01C18.63 -0.01 18.61 0 18.58 0C18.47 0.01 18.37 0.03 18.27 0.06C18.22 0.08 18.18 0.09 18.13 0.11C17.99 0.16 17.87 0.25 17.75 0.35L0.42 16.55C0.3 16.67 0.21 16.8 0.14 16.95C0.12 17 0.1 17.04 0.09 17.09C0.04 17.21 0.02 17.34 0.01 17.47C0.01 17.49 -0.01 17.52 -0.01 17.55L-0.01 68.85C-0.01 71.08 1.78 72.9 3.99 72.9L44.27 72.9C47.95 80.2 56.78 83.1 63.99 79.38C71.2 75.66 74.07 66.72 70.39 59.41ZM17.33 4.42L17.33 14.84C17.33 15.59 16.73 16.19 16 16.19L4.74 16.19L17.33 4.42ZM43.27 61.86C43.22 62.01 43.21 62.17 43.17 62.33C43.05 62.77 42.95 63.21 42.88 63.67C42.85 63.84 42.82 64 42.8 64.17C42.72 64.79 42.67 65.42 42.66 66.05L42.66 66.06L42.66 66.15C42.67 66.77 42.71 67.4 42.79 68.02C42.81 68.14 42.83 68.27 42.85 68.39C42.93 68.91 43.03 69.43 43.17 69.93C43.19 70.02 43.2 70.11 43.22 70.2L4 70.2C3.26 70.2 2.66 69.59 2.66 68.85L2.66 18.89L16 18.89C18.2 18.89 19.99 17.08 19.99 14.84L19.99 2.69L59.99 2.69C60.73 2.69 61.32 3.29 61.32 4.04L61.32 51.86C61.23 51.83 61.14 51.83 61.06 51.8C60.56 51.67 60.06 51.56 59.56 51.49C59.42 51.47 59.29 51.44 59.17 51.42C58.55 51.34 57.94 51.3 57.32 51.3L57.24 51.3L57.19 51.3C56.59 51.3 55.98 51.35 55.38 51.43C55.21 51.45 55.04 51.48 54.87 51.51C54.43 51.59 53.99 51.68 53.56 51.8C53.4 51.84 53.24 51.86 53.09 51.9C48.36 53.32 44.66 57.07 43.27 61.86ZM68.3 71.03C66.39 75.44 62.08 78.29 57.32 78.3C52.55 78.3 48.24 75.44 46.33 71.01C46.18 70.66 46.05 70.3 45.93 69.94C45.88 69.78 45.84 69.62 45.8 69.47C45.74 69.26 45.68 69.06 45.64 68.85C45.59 68.64 45.56 68.46 45.52 68.27C45.49 68.07 45.46 67.91 45.44 67.73C45.41 67.52 45.39 67.32 45.38 67.12C45.36 66.93 45.36 66.74 45.35 66.56C45.34 66.37 45.34 66.15 45.34 65.96C45.34 65.77 45.36 65.55 45.37 65.35C45.38 65.18 45.39 65 45.41 64.81C46.03 59.17 50.42 54.72 55.99 54.08C56.18 54.05 56.38 54.05 56.57 54.03C56.76 54.02 56.93 54.01 57.11 54.01C57.32 54.01 57.53 54.01 57.73 54.02C57.91 54.02 58.08 54.03 58.27 54.04C58.47 54.06 58.68 54.08 58.88 54.11C59.06 54.13 59.23 54.16 59.41 54.19C59.58 54.22 59.8 54.26 59.99 54.31C60.2 54.35 60.41 54.41 60.62 54.48C60.76 54.52 60.91 54.56 61.06 54.6C61.42 54.72 61.78 54.86 62.12 55.02C68.19 57.71 70.96 64.88 68.3 71.03ZM12 37.79L51.99 37.79C52.73 37.79 53.32 37.19 53.32 36.44C53.32 35.7 52.73 35.09 51.99 35.09L12 35.09C11.26 35.09 10.66 35.7 10.66 36.44C10.66 37.19 11.26 37.79 12 37.79ZM12 45.89L51.99 45.89C52.73 45.89 53.32 45.29 53.32 44.54C53.32 43.8 52.73 43.19 51.99 43.19L12 43.19C11.26 43.19 10.66 43.8 10.66 44.54C10.66 45.29 11.26 45.89 12 45.89ZM45.33 51.3L12 51.3C11.26 51.3 10.66 51.9 10.66 52.65C10.66 53.39 11.26 54 12 54L45.33 54C46.06 54 46.66 53.39 46.66 52.65C46.66 51.9 46.06 51.3 45.33 51.3ZM39.99 59.4L12 59.4C11.26 59.4 10.66 60 10.66 60.75C10.66 61.49 11.26 62.1 12 62.1L39.99 62.1C40.73 62.1 41.33 61.49 41.33 60.75C41.33 60 40.73 59.4 39.99 59.4ZM22.66 29.69L51.99 29.69C52.73 29.69 53.32 29.09 53.32 28.34C53.32 27.6 52.73 26.99 51.99 26.99L22.66 26.99C21.93 26.99 21.33 27.6 21.33 28.34C21.33 29.09 21.93 29.69 22.66 29.69ZM12 29.69L17.33 29.69C18.07 29.69 18.66 29.09 18.66 28.34C18.66 27.6 18.07 26.99 17.33 26.99L12 26.99C11.26 26.99 10.66 27.6 10.66 28.34C10.66 29.09 11.26 29.69 12 29.69ZM63.69 60.49L54.66 69.64L51.28 66.22C50.75 65.7 49.9 65.71 49.39 66.25C48.89 66.77 48.89 67.6 49.39 68.13L53.72 72.5C54.24 73.03 55.08 73.03 55.6 72.5L65.58 62.4C66.09 61.86 66.08 61.01 65.55 60.49C65.03 59.98 64.21 59.98 63.69 60.49Z" />
</svg>