<svg xmlns="http://www.w3.org/2000/svg" viewBox="0 0 18 21" width="18" height="21">
	<style>
		tspan { white-space:pre }
		.shp0 { fill: #eaeaea } 
	</style>
	<g id="Menu-RIGHT">
		<g id="share">
			<g id="hover">
				<g id="соц.мережі">
					<path id="P" class="shp0" d="M9.31 -0.01C3.24 -0.01 0.01 3.68 0.01 7.7C0.01 9.57 1.11 11.89 2.87 12.63C3.14 12.75 3.28 12.7 3.34 12.46C3.39 12.28 3.62 11.42 3.74 11.02C3.77 10.89 3.75 10.77 3.64 10.65C3.06 10.01 2.59 8.84 2.59 7.75C2.59 4.94 4.95 2.22 8.95 2.22C12.41 2.22 14.83 4.35 14.83 7.4C14.83 10.85 12.91 13.23 10.41 13.23C9.03 13.23 8 12.2 8.32 10.93C8.72 9.41 9.49 7.78 9.49 6.69C9.49 5.71 8.91 4.9 7.71 4.9C6.31 4.9 5.16 6.22 5.16 7.99C5.16 9.12 5.58 9.88 5.58 9.88C5.58 9.88 4.19 15.22 3.93 16.22C3.5 17.9 3.99 20.64 4.04 20.87C4.06 21 4.22 21.04 4.3 20.94C4.44 20.76 6.12 18.49 6.59 16.84C6.77 16.24 7.47 13.81 7.47 13.81C7.93 14.6 9.27 15.27 10.7 15.27C14.94 15.27 18.01 11.73 18.01 7.34C17.99 3.14 14.2 -0.01 9.31 -0.01Z" />
				</g>
			</g>
		</g>
	</g>
</svg>