<svg xmlns="http://www.w3.org/2000/svg" viewBox="0 0 21 21" width="21" height="21">
	<style>
		tspan { white-space:pre }
		.shp0 { fill: #ffffff } 
	</style>
	<g id="Головна">
		<g id="Btn">
			<path id="Shape 513" class="shp0" d="M21 14.61C21 14.81 20.87 14.98 20.68 15.04L16.43 16.43L15.04 20.68C14.98 20.87 14.81 21 14.61 21C14.41 21 14.25 20.88 14.18 20.71L10.53 11.12C10.51 11.07 10.5 11.02 10.5 10.96C10.5 10.7 10.71 10.5 10.96 10.5C11.02 10.5 11.07 10.51 11.12 10.53L20.71 14.18C20.88 14.25 21 14.41 21 14.61ZM9.62 19.25C4.32 19.25 0 14.93 0 9.62C0 4.32 4.32 0 9.62 0C14.93 0 19.25 4.32 19.25 9.62C19.25 10.05 19.22 10.47 19.17 10.88C19.1 11.36 18.66 11.69 18.18 11.62C17.7 11.56 17.37 11.12 17.43 10.64C17.48 10.31 17.5 9.97 17.5 9.62C17.5 5.28 13.97 1.75 9.62 1.75C5.28 1.75 1.75 5.28 1.75 9.62C1.75 13.97 5.28 17.5 9.62 17.5C9.97 17.5 10.31 17.48 10.64 17.43C11.12 17.37 11.56 17.7 11.62 18.18C11.69 18.66 11.35 19.1 10.88 19.17C10.47 19.22 10.05 19.25 9.62 19.25ZM9.21 14.86C9.18 14.86 9.15 14.86 9.13 14.86C6.41 14.61 4.36 12.36 4.36 9.62C4.36 6.72 6.72 4.36 9.62 4.36C12.36 4.36 14.61 6.41 14.86 9.14C14.9 9.62 14.55 10.04 14.06 10.09C13.57 10.12 13.16 9.77 13.12 9.29C12.95 7.48 11.45 6.11 9.62 6.11C7.69 6.11 6.11 7.69 6.11 9.62C6.11 11.45 7.48 12.95 9.29 13.11C9.77 13.16 10.12 13.59 10.08 14.07C10.04 14.52 9.66 14.86 9.21 14.86Z" />
		</g>
	</g>
</svg>