<?xml version="1.0" encoding="utf-8"?><svg xmlns="http://www.w3.org/2000/svg" xmlns:xlink="http://www.w3.org/1999/xlink"><symbol viewBox="0 0 18 12" id="arrow" xmlns="http://www.w3.org/2000/svg"><path d="M2.32 6.03L7.56.88c.24-.24.24-.63 0-.87a.628.628 0 00-.88 0L1.45 5.16m1.28-.13h13.69c.34 0 .61.27.61.61 0 .34-.27.61-.61.61H2.73c-.33 0-.61-.27-.61-.61 0-.34.28-.61.61-.61zm-1.75.6l5.7 5.61c.24.24.63.24.88 0 .24-.24.24-.63-.01-.87l-5.69-5.6-.88.86z"/></symbol><symbol viewBox="0 0 33 33" id="ball" xmlns="http://www.w3.org/2000/svg"><path class="bshp0" d="M33.01 16.51c0-4.41-1.72-8.55-4.83-11.66A16.392 16.392 0 0016.51.01C12.1.01 7.96 1.73 4.84 4.85A16.384 16.384 0 00.01 16.51c0 4.41 1.72 8.55 4.83 11.67 3.12 3.11 7.26 4.83 11.67 4.83s8.55-1.72 11.67-4.83c3.11-3.12 4.83-7.26 4.83-11.67zm-16.5 14.72c-.32 0-.65-.01-.97-.03-.09-2.91-.55-7.07-1.93-12.52.75-.12 1.49-.24 2.22-.35.47 2.53 1.57 4.9 3.18 6.89 1.34 1.66 3.02 3.03 4.91 4.01-2.22 1.31-4.76 2-7.41 2zm-8.88-2.98a15.468 15.468 0 00.27-8.65c1.33-.22 2.64-.43 3.95-.64 1.32 5.2 1.79 9.19 1.9 12.01a14.52 14.52 0 01-6.12-2.72zM6.1 26.92c-1.8-1.81-3.08-4-3.75-6.39 1.26-.22 2.53-.43 3.79-.64a13.865 13.865 0 01.02 7.08c-.02-.02-.04-.03-.06-.05zM1.79 16.51c0-1.09.12-2.16.35-3.19 1.49 1.36 2.66 3.02 3.42 4.86-1.2.2-2.39.4-3.59.61-.12-.75-.18-1.51-.18-2.28zM6.1 6.1c.34-.33.68-.64 1.04-.94a95.99 95.99 0 013.07 8.17c.44 1.36.83 2.66 1.18 3.9-1.33.21-2.68.43-4.03.65-.96-2.5-2.56-4.71-4.67-6.44.72-1.98 1.88-3.8 3.41-5.34zm10.41-4.31c1.91 0 3.77.37 5.49 1.06a15.714 15.714 0 00-4.83 5.71c-1.07 2.16-1.61 4.5-1.61 6.87 0 .38.01.76.04 1.13-.81.13-1.62.26-2.45.39-.36-1.33-.78-2.73-1.26-4.19a99.07 99.07 0 00-3.27-8.68c2.34-1.49 5.05-2.29 7.89-2.29zm14.55 12.47c-3.86.55-8.57 1.24-13.7 2.03-.15-2.4.33-4.77 1.41-6.94 1.15-2.31 2.9-4.24 5.08-5.6 1.11.64 2.14 1.42 3.07 2.35 2.24 2.25 3.67 5.08 4.14 8.16zM20.39 24.1a13.738 13.738 0 01-2.8-6.04c5.09-.79 9.79-1.48 13.63-2.03a14.63 14.63 0 01-4.3 10.89c-.42.41-.85.8-1.3 1.16-2.03-.89-3.83-2.26-5.23-3.98z"/></symbol><symbol viewBox="0 0 31 29" id="basket" xmlns="http://www.w3.org/2000/svg"><style/><g id="cMenu-RIGHT"><g id="cКорзина"><g id="cbasket"><path id="cShape 514 copy" d="M28.64 9.93h-1.11L22.6.5a.904.904 0 00-1.23-.38c-.44.23-.61.79-.38 1.24l4.49 8.57H5.65l4.49-8.57A.927.927 0 009.76.12.904.904 0 008.53.5L3.6 9.93H2.36C1.07 9.93.01 11 .01 12.32c0 1.31 1.06 2.38 2.35 2.38h.07c0 .02 0 .03.01.04L4.33 25.5c.35 2.02 2.08 3.49 4.11 3.49h14.25c2.03 0 3.76-1.47 4.11-3.49l1.9-10.76v-.04a2.375 2.375 0 002.29-2.38c0-1.32-1.06-2.39-2.35-2.39zm-3.62 15.25c-.21 1.14-1.18 1.97-2.33 1.97H8.44a2.36 2.36 0 01-2.32-1.97L4.27 14.7h22.59l-1.84 10.48zm3.62-12.32H2.36c-.29 0-.53-.24-.53-.54 0-.3.24-.55.53-.55h26.28c.29 0 .53.25.53.55 0 .3-.24.54-.53.54zm-13.18 3.12c-.5 0-.91.41-.91.92v8.05c0 .51.41.92.91.92s.91-.41.91-.92V16.9c0-.51-.41-.92-.91-.92zm-3.1 8.82l-1.33-8.05a.92.92 0 00-1.05-.76c-.49.09-.83.56-.74 1.06l1.33 8.06c.08.45.46.76.9.76.05 0 .1 0 .15-.01.49-.08.83-.56.74-1.06zm8.52-8.81c-.5-.08-.96.25-1.05.76l-1.34 8.05c-.08.5.25.98.75 1.06.05.01.1.01.15.01a.9.9 0 00.89-.76l1.34-8.06c.09-.5-.25-.97-.74-1.06z" fill="#fff"/></g></g></g></symbol><symbol viewBox="0 0 16 16" id="call" xmlns="http://www.w3.org/2000/svg"><path class="dshp0" d="M15.57 11.79L13.58 9.8c-.52-.54-1.45-.54-1.98 0l-.33.33 3.97 3.98.33-.33c.55-.55.54-1.45 0-1.99zm-4.98-1.02c-.42.33-1.01.31-1.39-.07L5.28 6.76c-.39-.38-.4-.98-.08-1.4L1.25 1.39c-1.71 1.99-1.64 4.99.24 6.88l6.2 6.23c1.81 1.81 4.76 2.05 6.86.24l-3.96-3.97zM6.18 2.36L4.19.37c-.52-.53-1.45-.53-1.98 0L1.88.7l3.97 3.98.33-.33c.55-.55.54-1.44 0-1.99z"/></symbol><symbol viewBox="0 0 16 17" id="call-2" xmlns="http://www.w3.org/2000/svg"><path d="M14 7.18c.01-2.2-1.89-4.21-4.25-4.49-.05 0-.1-.01-.15-.02-.12-.02-.24-.04-.36-.04-.49 0-.62.33-.65.53-.03.2 0 .36.09.48.16.22.45.26.67.29.07.01.13.02.18.03 2.12.46 2.84 1.19 3.19 3.26.01.05.01.11.01.18.02.24.05.76.61.76.05 0 .1-.01.15-.02.53-.07.51-.54.5-.77v-.16c.01-.01.01-.02.01-.03zM9.1 1.89c.06 0 .12 0 .17.01 3.48.53 5.09 2.15 5.53 5.59.01.06.01.13.01.21 0 .27.01.83.63.84h.02c.19 0 .34-.06.45-.17.19-.2.18-.49.17-.72-.01-.06-.01-.11-.01-.16.05-3.52-3.06-6.72-6.65-6.84h-.04c-.01.01-.02.01-.04.01-.04 0-.08-.01-.13-.01-.06 0-.12-.01-.19-.01-.57 0-.67.4-.69.64-.03.55.51.59.77.61zm5.53 10.05l-.22-.16c-.38-.31-.79-.58-1.18-.85-.08-.06-.16-.11-.24-.17-.5-.34-.95-.51-1.38-.51-.57 0-1.07.31-1.48.92-.19.28-.41.41-.68.41-.16 0-.35-.05-.55-.14-1.61-.72-2.77-1.82-3.43-3.28-.32-.7-.22-1.16.35-1.54.32-.21.91-.61.87-1.36-.05-.86-1.98-3.45-2.8-3.75-.34-.12-.71-.12-1.08 0-.94.31-1.61.85-1.94 1.57-.33.69-.31 1.51.04 2.35 1.01 2.46 2.44 4.59 4.25 6.36 1.76 1.72 3.93 3.13 6.44 4.2.23.09.47.14.64.18.06.02.11.03.15.04h.08c1.18 0 2.6-1.05 3.04-2.26.38-1.06-.32-1.59-.88-2.01zM9.62 4.68c-.2.01-.62.02-.77.44-.07.2-.06.37.03.51.12.2.36.27.58.3.79.13 1.2.56 1.28 1.36.04.37.3.63.62.63.03 0 .05 0 .08-.01.39-.04.58-.33.57-.84 0-.54-.28-1.15-.77-1.64-.49-.48-1.08-.76-1.62-.75z"/></symbol><symbol viewBox="0 0 83 83" id="cash" xmlns="http://www.w3.org/2000/svg"><path fill-rule="evenodd" d="M77.5 41.18l-1.61.65c.08.46.13.93.13 1.4v31.13c-.01 4.77-3.87 8.64-8.64 8.65H8.63C3.86 83 0 79.13-.01 74.36V43.23a8.657 8.657 0 018.64-8.65h2.92l-1.27-3.41c-1.69-4.46.48-9.46 4.89-11.27L61.52.66c.07-.02.13-.05.2-.07 4.56-1.76 9.68.51 11.44 5.07l9.27 24.14c1.71 4.5-.48 9.55-4.93 11.38zm-74.71 1.7h70.43a5.869 5.869 0 00-5.84-5.53H8.63c-3.1.01-5.66 2.43-5.84 5.53zm21.63-9.11l9.24-4.63-1.9-4.75-9.24 4.62 1.9 4.76zm48.83 22.95H2.75v17.64c.01 3.25 2.64 5.88 5.88 5.88h58.75c3.24 0 5.87-2.63 5.87-5.88V56.72zm0-11.07H2.75v8.3h70.5v-8.3zm6.6-14.85L70.58 6.66c-.02-.05-.04-.09-.06-.14a6.067 6.067 0 00-7.94-3.29L16.23 22.46a6.063 6.063 0 00-3.36 7.75l1.63 4.37h7.27l-2.29-5.72c-.26-.67.03-1.43.67-1.75l11.72-5.87c.03-.02.07-.03.1-.05.71-.28 1.52.06 1.8.77l2.93 7.34c.27.66-.02 1.43-.66 1.75l-7.06 3.53h38.4c3.21 0 6.15 1.78 7.64 4.63l1.44-.59a6.106 6.106 0 003.39-7.82zM46.71 65c2.3-3.96 7.38-5.31 11.34-3.01a8.28 8.28 0 014.15-1.12c1.47 0 2.91.38 4.18 1.12 3.96 2.31 5.31 7.39 3.01 11.35-2.3 3.97-7.38 5.31-11.34 3.01a8.272 8.272 0 01-8.33 0c-3.97-2.3-5.31-7.39-3.01-11.35zm13.65 9.37c.59.21 1.21.33 1.84.34 3.05 0 5.52-2.48 5.52-5.54a5.52 5.52 0 00-5.52-5.53c-.63 0-1.25.12-1.84.33a8.277 8.277 0 010 10.4zm-2.31-1.58a5.438 5.438 0 000-7.24 5.438 5.438 0 000 7.24zm-9.68-3.62c0 3.06 2.48 5.54 5.53 5.54a5.76 5.76 0 001.84-.34 8.277 8.277 0 010-10.4 5.49 5.49 0 00-1.84-.33c-3.05 0-5.53 2.47-5.53 5.53zm11.05-38.1l-1.12-2.53 13.19-5.86 1.12 2.53-13.19 5.86zm-9.92-5.45l19.04-8.8 1.16 2.51-19.05 8.8-1.15-2.51zm6.03 37.54C56.28 63.12 57 63 57 63l-1.47.16zM54 63c-.58-.4-6 1-6 1l7.53-.84c-.62.04-1.27.02-1.53-.16z"/></symbol><symbol viewBox="0 0 13 9" id="envelope" xmlns="http://www.w3.org/2000/svg"><path d="M12.54.11H.46L6.5 4.93 12.61.12c-.02 0-.05-.01-.07-.01zM6.79 5.86c-.17.14-.41.14-.59 0L-.01.91v7.75c0 .25.21.45.47.45h12.08c.26 0 .46-.2.46-.45V.97L6.79 5.86z"/></symbol><symbol viewBox="0 0 10 19" id="facebook" xmlns="http://www.w3.org/2000/svg"><path class="hshp0" d="M8.18 3.16h1.83V.14C9.69.1 8.61 0 7.35 0 4.71 0 2.9 1.57 2.9 4.46v2.66H-.01v3.38H2.9v8.49h3.57V10.5h2.79l.45-3.38H6.47V4.8c0-.98.28-1.64 1.71-1.64z"/></symbol><symbol viewBox="0 0 8 18" id="fb" xmlns="http://www.w3.org/2000/svg"><path class="ishp0" d="M5.72 18.01H2.29l-.01-8.42L0 9.61v-3.6h2.29l-.01-1.78C2.28 2.72 2.76 0 5.72 0h2.29v3.6H6.86c-.31 0-1.14.49-1.14 1.21v1.2h2.29v3.6H5.72v8.4z"/></symbol><symbol viewBox="0 0 25 16" id="google+" xmlns="http://www.w3.org/2000/svg"><path class="jshp0" d="M22.74 4.81h-2.28v2.31h-2.27v2.33h2.27v2.32h2.28V9.45h2.27V7.12h-2.27V4.81zM7.82 15.99c4.51 0 7.5-3.24 7.5-7.8 0-.53-.05-.93-.12-1.33H7.82V9.6h4.44c-.18 1.17-1.35 3.44-4.44 3.44-2.66 0-4.83-2.25-4.83-5.04s2.17-5.05 4.83-5.05c1.53 0 2.54.67 3.11 1.24l2.13-2.08C11.69.8 9.93.01 7.82.01 3.51.01.01 3.59.01 8s3.5 7.99 7.81 7.99z"/></symbol><symbol viewBox="0 0 16 16" id="inst" xmlns="http://www.w3.org/2000/svg"><path class="kshp0" d="M15.59 13.24a4.143 4.143 0 01-2.34 2.34c-.51.2-1.09.33-1.94.37-.86.04-1.13.05-3.3.05s-2.45-.01-3.3-.05c-.85-.04-1.43-.17-1.94-.37a4.045 4.045 0 01-2.34-2.34c-.2-.51-.33-1.09-.37-1.94C.02 10.44.01 10.17.01 8s.01-2.45.05-3.3c.04-.85.17-1.43.37-1.94.2-.54.52-1.02.92-1.42.4-.41.89-.72 1.42-.92.51-.2 1.09-.34 1.94-.37C5.56.01 5.84 0 8.01 0s2.44.01 3.3.05c.85.03 1.43.17 1.94.37.53.2 1.02.51 1.42.92.4.4.72.88.92 1.42.2.51.33 1.09.37 1.94.04.85.05 1.13.05 3.3s-.01 2.44-.05 3.3c-.04.85-.17 1.43-.37 1.94zM8.01 3.89a4.11 4.11 0 100 8.22 4.11 4.11 0 000-8.22zm4.75-1.64c-.55 0-1 .45-1 1s.45 1 1 1 1-.45 1-1-.45-1-1-1zm-4.75 7.88c-1.18 0-2.13-.95-2.13-2.13s.95-2.13 2.13-2.13 2.13.95 2.13 2.13-.95 2.13-2.13 2.13z"/></symbol><symbol viewBox="0 0 20 19" id="instagram" xmlns="http://www.w3.org/2000/svg"><path class="lshp0" d="M19.99 19.01v-6.97c0-3.41-.77-6.04-4.96-6.04-2.02 0-3.37 1.05-3.93 2.05h-.06V6.32H7.07v12.69h4.14v-6.29c0-1.65.33-3.25 2.48-3.25 2.13 0 2.16 1.89 2.16 3.36v6.18h4.14zM.32 6.32h4.15v12.69H.32V6.32zM2.39.01c-1.32 0-2.4 1.02-2.4 2.28 0 1.26 1.08 2.3 2.4 2.3 1.33 0 2.41-1.04 2.41-2.3C4.8 1.03 3.72.01 2.39.01z"/></symbol><symbol viewBox="0 0 72 81" id="list" xmlns="http://www.w3.org/2000/svg"><path d="M70.39 59.41c-1.4-2.79-3.64-5.06-6.4-6.48V4.04c0-2.24-1.79-4.05-4-4.05H18.66c-.03 0-.05.01-.08.01-.11.01-.21.03-.31.06-.05.02-.09.03-.14.05-.14.05-.26.14-.38.24L.42 16.55c-.12.12-.21.25-.28.4-.02.05-.04.09-.05.14-.05.12-.07.25-.08.38 0 .02-.02.05-.02.08v51.3c0 2.23 1.79 4.05 4 4.05h40.28c3.68 7.3 12.51 10.2 19.72 6.48 7.21-3.72 10.08-12.66 6.4-19.97zM17.33 4.42v10.42c0 .75-.6 1.35-1.33 1.35H4.74L17.33 4.42zm25.94 57.44c-.05.15-.06.31-.1.47-.12.44-.22.88-.29 1.34-.03.17-.06.33-.08.5-.08.62-.13 1.25-.14 1.88v.1c.01.62.05 1.25.13 1.87l.06.37c.08.52.18 1.04.32 1.54.02.09.03.18.05.27H4c-.74 0-1.34-.61-1.34-1.35V18.89H16c2.2 0 3.99-1.81 3.99-4.05V2.69h40c.74 0 1.33.6 1.33 1.35v47.82c-.09-.03-.18-.03-.26-.06-.5-.13-1-.24-1.5-.31-.14-.02-.27-.05-.39-.07-.62-.08-1.23-.12-1.85-.12h-.13a13.771 13.771 0 00-2.32.21c-.44.08-.88.17-1.31.29-.16.04-.32.06-.47.1-4.73 1.42-8.43 5.17-9.82 9.96zm25.03 9.17c-1.91 4.41-6.22 7.26-10.98 7.27-4.77 0-9.08-2.86-10.99-7.29-.15-.35-.28-.71-.4-1.07-.05-.16-.09-.32-.13-.47-.06-.21-.12-.41-.16-.62-.05-.21-.08-.39-.12-.58-.03-.2-.06-.36-.08-.54a6.62 6.62 0 01-.06-.61c-.02-.19-.02-.38-.03-.56-.01-.19-.01-.41-.01-.6s.02-.41.03-.61c.01-.17.02-.35.04-.54.62-5.64 5.01-10.09 10.58-10.73.19-.03.39-.03.58-.05.19-.01.36-.02.54-.02.21 0 .42 0 .62.01.18 0 .35.01.54.02.2.02.41.04.61.07.18.02.35.05.53.08.17.03.39.07.58.12.21.04.42.1.63.17.14.04.29.08.44.12.36.12.72.26 1.06.42 6.07 2.69 8.84 9.86 6.18 16.01zM12 37.79h39.99c.74 0 1.33-.6 1.33-1.35 0-.74-.59-1.35-1.33-1.35H12c-.74 0-1.34.61-1.34 1.35 0 .75.6 1.35 1.34 1.35zm0 8.1h39.99c.74 0 1.33-.6 1.33-1.35 0-.74-.59-1.35-1.33-1.35H12c-.74 0-1.34.61-1.34 1.35 0 .75.6 1.35 1.34 1.35zm33.33 5.41H12c-.74 0-1.34.6-1.34 1.35 0 .74.6 1.35 1.34 1.35h33.33c.73 0 1.33-.61 1.33-1.35 0-.75-.6-1.35-1.33-1.35zm-5.34 8.1H12c-.74 0-1.34.6-1.34 1.35 0 .74.6 1.35 1.34 1.35h27.99c.74 0 1.34-.61 1.34-1.35 0-.75-.6-1.35-1.34-1.35zM22.66 29.69h29.33c.74 0 1.33-.6 1.33-1.35 0-.74-.59-1.35-1.33-1.35H22.66c-.73 0-1.33.61-1.33 1.35 0 .75.6 1.35 1.33 1.35zm-10.66 0h5.33c.74 0 1.33-.6 1.33-1.35 0-.74-.59-1.35-1.33-1.35H12c-.74 0-1.34.61-1.34 1.35 0 .75.6 1.35 1.34 1.35zm51.69 30.8l-9.03 9.15-3.38-3.42c-.53-.52-1.38-.51-1.89.03-.5.52-.5 1.35 0 1.88l4.33 4.37c.52.53 1.36.53 1.88 0l9.98-10.1c.51-.54.5-1.39-.03-1.91-.52-.51-1.34-.51-1.86 0z"/></symbol><symbol viewBox="-2 0 511 511.999" id="messenger" xmlns="http://www.w3.org/2000/svg"><path d="M95.863 512c-7.46 0-14.89-2.055-21.508-6.148-12.16-7.512-19.414-20.532-19.414-34.829v-60C12.125 356.777-6.379 289.035 2.797 219.52 17.507 107.988 109.176 16.574 220.747 2.172 299.331-7.98 376.472 17.777 432.472 72.8c56.004 55.023 83.101 131.644 74.359 210.226-12.668 113.805-104.566 207.43-218.5 222.63-45.422 6.023-91.36-.266-133.504-18.317l-40.629 20.3c-5.82 2.907-12.094 4.36-18.336 4.36zM225.387 38.168C129.847 50.5 51.359 128.766 38.754 224.266c-8.121 61.597 9.02 121.527 48.277 168.722a18.16 18.16 0 014.188 11.602v66.433c0 2.141 1.207 3.329 2.207 3.97 1.027.616 2.648 1.148 4.554.19l48.325-24.144a18.106 18.106 0 0115.82-.195c38.02 17.84 79.984 24.36 121.402 18.851 97.649-13.023 176.391-93.218 187.25-190.672 7.504-67.441-15.73-133.183-63.738-180.34-48-47.175-114.207-69.25-181.652-60.515zm-2.32-18h.175zm0 0"/><path d="M128.398 311.344l83.274-118.52c3.469-6.07 11.469-7.722 17.058-3.531l55.786 41.836a11.618 11.618 0 0012.949.668l67.93-48.016c9.968-5.98 21.566 4.762 16.37 15.16l-67.25 116.356c-3.027 6.055-10.566 8.25-16.37 4.765l-74.473-44.683a11.622 11.622 0 00-11.176-.43l-68.816 52.547c-10.278 5.145-20.985-6.172-15.282-16.152zm0 0"/></symbol><symbol viewBox="0 0 18 21" id="pinterest" xmlns="http://www.w3.org/2000/svg"><path class="oshp0" d="M9.31-.01C3.24-.01.01 3.68.01 7.7c0 1.87 1.1 4.19 2.86 4.93.27.12.41.07.47-.17.05-.18.28-1.04.4-1.44a.38.38 0 00-.1-.37c-.58-.64-1.05-1.81-1.05-2.9 0-2.81 2.36-5.53 6.36-5.53 3.46 0 5.88 2.13 5.88 5.18 0 3.45-1.92 5.83-4.42 5.83-1.38 0-2.41-1.03-2.09-2.3.4-1.52 1.17-3.15 1.17-4.24 0-.98-.58-1.79-1.78-1.79-1.4 0-2.55 1.32-2.55 3.09 0 1.13.42 1.89.42 1.89l-1.65 6.34c-.43 1.68.06 4.42.11 4.65.02.13.18.17.26.07.14-.18 1.82-2.45 2.29-4.1.18-.6.88-3.03.88-3.03.46.79 1.8 1.46 3.23 1.46 4.24 0 7.31-3.54 7.31-7.93-.02-4.2-3.81-7.35-8.7-7.35z"/></symbol><symbol viewBox="0 0 13 16" id="rubbish-bin" xmlns="http://www.w3.org/2000/svg"><path d="M11.74 1.99H8.99v-.5c0-.82-.67-1.5-1.49-1.5h-2c-.83 0-1.5.68-1.5 1.5v.5H1.25C.56 1.99 0 2.56 0 3.25V5c0 .27.23.5.5.5h.28l.43 9.07c.04.81.69 1.43 1.49 1.43h7.59c.8 0 1.46-.62 1.49-1.43l.44-9.07h.27c.27 0 .5-.23.5-.5V3.25c0-.69-.56-1.26-1.25-1.26zM5 1.49c0-.27.22-.5.5-.5h2a.5.5 0 01.49.5v.5H5v-.5zM1 3.25c0-.14.12-.25.25-.25h10.49c.14 0 .25.11.25.25V4.5H1V3.25zm9.79 11.28c-.02.26-.23.47-.5.47H2.7c-.26 0-.48-.21-.49-.47L1.78 5.5h9.44l-.43 9.03zM6.5 14c.27 0 .5-.22.5-.5V7c0-.28-.23-.5-.5-.5-.28 0-.5.22-.5.5v6.5c0 .28.22.5.5.5zm2.49 0c.28 0 .5-.22.5-.5V7c0-.28-.22-.5-.5-.5-.27 0-.5.22-.5.5v6.5c0 .28.23.5.5.5zM4 14c.28 0 .5-.22.5-.5V7c0-.28-.22-.5-.5-.5s-.5.22-.5.5v6.5c0 .28.22.5.5.5z"/></symbol><symbol viewBox="0 0 14 16" id="share" xmlns="http://www.w3.org/2000/svg"><path class="qshp0" d="M11.46 10.66c-.73 0-1.39.34-1.86.86L4.98 8.76c.07-.24.12-.5.12-.77s-.05-.52-.12-.77L9.6 4.46c.47.53 1.13.86 1.86.86 1.41 0 2.55-1.19 2.55-2.67 0-1.47-1.14-2.66-2.55-2.66-1.4 0-2.54 1.19-2.54 2.66 0 .22.03.43.08.63l-4.68 2.8c-.45-.47-1.08-.76-1.76-.76-1.41 0-2.55 1.2-2.55 2.67s1.14 2.67 2.55 2.67c.68 0 1.31-.29 1.76-.75L9 12.7c-.05.2-.08.41-.08.63 0 1.47 1.14 2.67 2.54 2.67 1.41 0 2.55-1.2 2.55-2.67s-1.14-2.67-2.55-2.67z"/></symbol><symbol viewBox="0 0 21 21" id="target" xmlns="http://www.w3.org/2000/svg"><path class="rshp0" d="M21 14.61c0 .2-.13.37-.32.43l-4.25 1.39-1.39 4.25a.45.45 0 01-.43.32.46.46 0 01-.43-.29l-3.65-9.59a.459.459 0 01.59-.59l9.59 3.65c.17.07.29.23.29.43zM9.62 19.25C4.32 19.25 0 14.93 0 9.62 0 4.32 4.32 0 9.62 0c5.31 0 9.63 4.32 9.63 9.62 0 .43-.03.85-.08 1.26a.87.87 0 01-.99.74.87.87 0 01-.75-.98c.05-.33.07-.67.07-1.02 0-4.34-3.53-7.87-7.88-7.87-4.34 0-7.87 3.53-7.87 7.87 0 4.35 3.53 7.88 7.87 7.88.35 0 .69-.02 1.02-.07.48-.06.92.27.98.75.07.48-.27.92-.74.99-.41.05-.83.08-1.26.08zm-.41-4.39h-.08a5.23 5.23 0 01-4.77-5.24c0-2.9 2.36-5.26 5.26-5.26 2.74 0 4.99 2.05 5.24 4.78.04.48-.31.9-.8.95-.49.03-.9-.32-.94-.8a3.496 3.496 0 00-3.5-3.18c-1.93 0-3.51 1.58-3.51 3.51a3.48 3.48 0 003.18 3.49c.48.05.83.48.79.96a.87.87 0 01-.87.79z"/></symbol><symbol viewBox="0 0 18 16" id="tg" xmlns="http://www.w3.org/2000/svg"><path fill-rule="evenodd" d="M17.42 1.21L14.5 14.98a.47.47 0 01-.73.28l-3.99-2.84a.675.675 0 00-.8.02l-2.21 1.77c-.26.21-.65.09-.75-.22L4.49 9.15.52 7.7c-.4-.15-.4-.71 0-.86L16.79.68c.35-.13.7.17.63.53zM13.53 3.7L5.78 8.38c-.3.18-.44.53-.34.86l.83 2.89c.06.2.37.18.39-.03l.22-1.58c.04-.3.19-.58.41-.78l6.4-5.83c.12-.11-.02-.3-.16-.21z"/></symbol><symbol viewBox="0 0 24 24" id="viber" xmlns="http://www.w3.org/2000/svg"><path d="M23.155 13.893c.716-6.027-.344-9.832-2.256-11.553l.001-.001C17.814-.6 7.392-1.035 3.7 2.471 2.042 4.186 1.458 6.703 1.394 9.819c-.064 3.117-.14 8.956 5.301 10.54H6.7l-.005 2.419s-.037.98.589 1.177c.716.232 1.04-.223 3.267-2.883 3.724.323 6.584-.417 6.909-.525.752-.252 5.007-.815 5.695-6.654zM10.918 19.37s-2.357 2.939-3.09 3.702c-.24.248-.503.225-.499-.267 0-.323.018-4.016.018-4.016-4.613-1.322-4.341-6.294-4.291-8.895.05-2.602.526-4.733 1.93-6.168C8.225.689 17.362 1.368 19.69 3.556c2.846 2.523 1.833 9.651 1.839 9.894-.585 4.874-4.033 5.183-4.667 5.394-.271.09-2.786.737-5.944.526z"/><path d="M12.222 4.297c-.385 0-.385.6 0 .605 2.987.023 5.447 2.105 5.474 5.924 0 .403.59.398.585-.005h-.001c-.032-4.115-2.718-6.501-6.058-6.524z"/><path d="M16.151 10.193c-.009.398.58.417.585.014.049-2.269-1.35-4.138-3.979-4.335-.385-.028-.425.577-.041.605 2.28.173 3.481 1.729 3.435 3.716zm-.63 2.581c-.494-.286-.997-.108-1.205.173l-.435.563c-.221.286-.634.248-.634.248-3.014-.797-3.82-3.951-3.82-3.951s-.037-.427.239-.656l.544-.45c.272-.216.444-.736.167-1.247-.74-1.337-1.237-1.798-1.49-2.152-.266-.333-.666-.408-1.082-.183h-.009c-.865.506-1.812 1.453-1.509 2.428.517 1.028 1.467 4.305 4.495 6.781 1.423 1.171 3.675 2.371 4.631 2.648l.009.014c.942.314 1.858-.67 2.347-1.561v-.007c.217-.431.145-.839-.172-1.106-.562-.548-1.41-1.153-2.076-1.542z"/><path d="M13.169 8.104c.961.056 1.427.558 1.477 1.589.018.403.603.375.585-.028-.064-1.346-.766-2.096-2.03-2.166-.385-.023-.421.582-.032.605z"/></symbol><symbol viewBox="0 0 70 86" id="wallet" xmlns="http://www.w3.org/2000/svg"><path d="M61.34 34.65H29.99a9.715 9.715 0 002.33-6.32c0-5.32-4.25-9.65-9.48-9.65s-9.49 4.33-9.49 9.65c0 2.41.88 4.62 2.33 6.32H8.2c-4.52 0-8.2 3.74-8.2 8.33v9.84c0 .92.73 1.67 1.64 1.67.91 0 1.64-.75 1.64-1.67v-9.84c0-2.76 2.21-5 4.92-5h45.92c2.72 0 4.92 2.24 4.92 5v9.01H41.99c-4.53 0-8.2 3.74-8.2 8.33 0 4.6 3.67 8.34 8.2 8.34h17.05v9c0 2.76-2.2 5-4.92 5H8.2c-2.71 0-4.92-2.24-4.92-5v-9.85c0-.92-.73-1.66-1.64-1.66-.91 0-1.64.74-1.64 1.66v9.85C0 82.26 3.68 86 8.2 86h53.14c4.52 0 8.2-3.74 8.2-8.34V42.98c0-4.59-3.68-8.33-8.2-8.33zm-38.5-12.63c3.42 0 6.2 2.83 6.2 6.31 0 3.47-2.78 6.3-6.2 6.3-3.42 0-6.21-2.83-6.21-6.3 0-3.48 2.79-6.31 6.21-6.31zm37.84 15.96h.66c2.71 0 4.92 2.24 4.92 5v9.01h-3.94v-9.01c0-1.87-.61-3.6-1.64-5zM37.07 60.32c0-2.76 2.2-5 4.92-5h24.27v10H41.99c-2.72 0-4.92-2.24-4.92-5zm24.27 22.34h-.66a8.367 8.367 0 001.64-5v-9h3.94v9c0 2.76-2.21 5-4.92 5zm-19.77-24c-.44 0-.86.17-1.17.48-.3.31-.47.74-.47 1.18 0 .44.17.87.47 1.18.31.31.73.49 1.17.49.43 0 .85-.18 1.16-.49.3-.31.48-.74.48-1.18 0-.44-.18-.87-.48-1.18-.31-.31-.73-.48-1.16-.48zm5.13-38.25c5.23 0 9.49-4.33 9.49-9.64 0-5.32-4.26-9.65-9.49-9.65s-9.48 4.33-9.48 9.65c0 5.31 4.25 9.64 9.48 9.64zm0-15.95c3.42 0 6.21 2.83 6.21 6.31 0 3.47-2.79 6.3-6.21 6.3s-6.2-2.83-6.2-6.3c0-3.48 2.78-6.31 6.2-6.31zM30.68 16.89c.91 0 1.64-.74 1.64-1.66V2.12c0-.92-.73-1.66-1.64-1.66-.9 0-1.64.74-1.64 1.66v13.11c0 .92.74 1.66 1.64 1.66zm-7.87-5.76c.91 0 1.64-.75 1.64-1.67V2.12c0-.92-.73-1.66-1.64-1.66-.91 0-1.64.74-1.64 1.66v7.34c0 .92.73 1.67 1.64 1.67zM1.64 61.99c.43 0 .85-.18 1.16-.49.3-.31.48-.74.48-1.18 0-.44-.18-.87-.48-1.18a1.643 1.643 0 00-2.32 0c-.3.31-.48.74-.48 1.18 0 .44.18.87.48 1.18.31.31.73.49 1.16.49z"/></symbol><symbol viewBox="0 0 512 512" fill-rule="evenodd" clip-rule="evenodd" stroke-linejoin="round" stroke-miterlimit="2" id="youtube" xmlns="http://www.w3.org/2000/svg"><path d="M501.303 132.765c-5.887-22.03-23.235-39.377-45.265-45.265C416.106 76.8 256 76.8 256 76.8s-160.107 0-200.039 10.7c-22.026 5.888-39.377 23.235-45.264 45.265C0 172.693 0 256.003 0 256.003s0 83.308 10.697 123.232c5.887 22.03 23.238 39.382 45.264 45.269C95.893 435.2 256 435.2 256 435.2s160.106 0 200.038-10.696c22.03-5.887 39.378-23.239 45.265-45.269 10.696-39.924 10.696-123.232 10.696-123.232s0-83.31-10.696-123.238zM204.797 332.804V179.201l133.019 76.802-133.019 76.801z" fill-rule="nonzero"/></symbol></svg>