<?xml version="1.0" encoding="utf-8"?><svg xmlns="http://www.w3.org/2000/svg" xmlns:xlink="http://www.w3.org/1999/xlink"><symbol viewBox="0 0 18 12" id="arrow" xmlns="http://www.w3.org/2000/svg"><style/><g id="aБлок-5"><g id="aГалерея"><g id="aArrow"><g id="aArrow-L"><path id="aArrow" d="M2.32 6.03L7.56.88c.24-.24.24-.63 0-.87a.628.628 0 00-.88 0L1.45 5.16m1.28-.13h13.69c.34 0 .61.27.61.61 0 .34-.27.61-.61.61H2.73c-.33 0-.61-.27-.61-.61 0-.34.28-.61.61-.61zm-1.75.6l5.7 5.61c.24.24.63.24.88 0 .24-.24.24-.63-.01-.87l-5.69-5.6-.88.86z" fill="#00142c"/></g></g></g></g></symbol><symbol viewBox="0 0 33 33" id="ball" xmlns="http://www.w3.org/2000/svg"><path class="bshp0" d="M33.01 16.51c0-4.41-1.72-8.55-4.83-11.66A16.392 16.392 0 0016.51.01C12.1.01 7.96 1.73 4.84 4.85A16.384 16.384 0 00.01 16.51c0 4.41 1.72 8.55 4.83 11.67 3.12 3.11 7.26 4.83 11.67 4.83s8.55-1.72 11.67-4.83c3.11-3.12 4.83-7.26 4.83-11.67zm-16.5 14.72c-.32 0-.65-.01-.97-.03-.09-2.91-.55-7.07-1.93-12.52.75-.12 1.49-.24 2.22-.35.47 2.53 1.57 4.9 3.18 6.89 1.34 1.66 3.02 3.03 4.91 4.01-2.22 1.31-4.76 2-7.41 2zm-8.88-2.98a15.468 15.468 0 00.27-8.65c1.33-.22 2.64-.43 3.95-.64 1.32 5.2 1.79 9.19 1.9 12.01a14.52 14.52 0 01-6.12-2.72zM6.1 26.92c-1.8-1.81-3.08-4-3.75-6.39 1.26-.22 2.53-.43 3.79-.64a13.865 13.865 0 01.02 7.08c-.02-.02-.04-.03-.06-.05zM1.79 16.51c0-1.09.12-2.16.35-3.19 1.49 1.36 2.66 3.02 3.42 4.86-1.2.2-2.39.4-3.59.61-.12-.75-.18-1.51-.18-2.28zM6.1 6.1c.34-.33.68-.64 1.04-.94a95.99 95.99 0 013.07 8.17c.44 1.36.83 2.66 1.18 3.9-1.33.21-2.68.43-4.03.65-.96-2.5-2.56-4.71-4.67-6.44.72-1.98 1.88-3.8 3.41-5.34zm10.41-4.31c1.91 0 3.77.37 5.49 1.06a15.714 15.714 0 00-4.83 5.71c-1.07 2.16-1.61 4.5-1.61 6.87 0 .38.01.76.04 1.13-.81.13-1.62.26-2.45.39-.36-1.33-.78-2.73-1.26-4.19a99.07 99.07 0 00-3.27-8.68c2.34-1.49 5.05-2.29 7.89-2.29zm14.55 12.47c-3.86.55-8.57 1.24-13.7 2.03-.15-2.4.33-4.77 1.41-6.94 1.15-2.31 2.9-4.24 5.08-5.6 1.11.64 2.14 1.42 3.07 2.35 2.24 2.25 3.67 5.08 4.14 8.16zM20.39 24.1a13.738 13.738 0 01-2.8-6.04c5.09-.79 9.79-1.48 13.63-2.03a14.63 14.63 0 01-4.3 10.89c-.42.41-.85.8-1.3 1.16-2.03-.89-3.83-2.26-5.23-3.98z"/></symbol><symbol viewBox="0 0 31 29" id="basket" xmlns="http://www.w3.org/2000/svg"><style/><g id="cMenu-RIGHT"><g id="cКорзина"><g id="cbasket"><path id="cShape 514 copy" d="M28.64 9.93h-1.11L22.6.5a.904.904 0 00-1.23-.38c-.44.23-.61.79-.38 1.24l4.49 8.57H5.65l4.49-8.57A.927.927 0 009.76.12.904.904 0 008.53.5L3.6 9.93H2.36C1.07 9.93.01 11 .01 12.32c0 1.31 1.06 2.38 2.35 2.38h.07c0 .02 0 .03.01.04L4.33 25.5c.35 2.02 2.08 3.49 4.11 3.49h14.25c2.03 0 3.76-1.47 4.11-3.49l1.9-10.76v-.04a2.375 2.375 0 002.29-2.38c0-1.32-1.06-2.39-2.35-2.39zm-3.62 15.25c-.21 1.14-1.18 1.97-2.33 1.97H8.44a2.36 2.36 0 01-2.32-1.97L4.27 14.7h22.59l-1.84 10.48zm3.62-12.32H2.36c-.29 0-.53-.24-.53-.54 0-.3.24-.55.53-.55h26.28c.29 0 .53.25.53.55 0 .3-.24.54-.53.54zm-13.18 3.12c-.5 0-.91.41-.91.92v8.05c0 .51.41.92.91.92s.91-.41.91-.92V16.9c0-.51-.41-.92-.91-.92zm-3.1 8.82l-1.33-8.05a.92.92 0 00-1.05-.76c-.49.09-.83.56-.74 1.06l1.33 8.06c.08.45.46.76.9.76.05 0 .1 0 .15-.01.49-.08.83-.56.74-1.06zm8.52-8.81c-.5-.08-.96.25-1.05.76l-1.34 8.05c-.08.5.25.98.75 1.06.05.01.1.01.15.01a.9.9 0 00.89-.76l1.34-8.06c.09-.5-.25-.97-.74-1.06z" fill="#fff"/></g></g></g></symbol><symbol viewBox="0 0 16 16" id="call" xmlns="http://www.w3.org/2000/svg"><path class="dshp0" d="M15.57 11.79L13.58 9.8c-.52-.54-1.45-.54-1.98 0l-.33.33 3.97 3.98.33-.33c.55-.55.54-1.45 0-1.99zm-4.98-1.02c-.42.33-1.01.31-1.39-.07L5.28 6.76c-.39-.38-.4-.98-.08-1.4L1.25 1.39c-1.71 1.99-1.64 4.99.24 6.88l6.2 6.23c1.81 1.81 4.76 2.05 6.86.24l-3.96-3.97zM6.18 2.36L4.19.37c-.52-.53-1.45-.53-1.98 0L1.88.7l3.97 3.98.33-.33c.55-.55.54-1.44 0-1.99z"/></symbol><symbol viewBox="0 0 10 19" id="facebook" xmlns="http://www.w3.org/2000/svg"><path class="eshp0" d="M8.18 3.16h1.83V.14C9.69.1 8.61 0 7.35 0 4.71 0 2.9 1.57 2.9 4.46v2.66H-.01v3.38H2.9v8.49h3.57V10.5h2.79l.45-3.38H6.47V4.8c0-.98.28-1.64 1.71-1.64z"/></symbol><symbol viewBox="0 0 8 18" id="fb" xmlns="http://www.w3.org/2000/svg"><path class="fshp0" d="M5.72 18.01H2.29l-.01-8.42L0 9.61v-3.6h2.29l-.01-1.78C2.28 2.72 2.76 0 5.72 0h2.29v3.6H6.86c-.31 0-1.14.49-1.14 1.21v1.2h2.29v3.6H5.72v8.4z"/></symbol><symbol viewBox="0 0 25 16" id="google+" xmlns="http://www.w3.org/2000/svg"><path class="gshp0" d="M22.74 4.81h-2.28v2.31h-2.27v2.33h2.27v2.32h2.28V9.45h2.27V7.12h-2.27V4.81zM7.82 15.99c4.51 0 7.5-3.24 7.5-7.8 0-.53-.05-.93-.12-1.33H7.82V9.6h4.44c-.18 1.17-1.35 3.44-4.44 3.44-2.66 0-4.83-2.25-4.83-5.04s2.17-5.05 4.83-5.05c1.53 0 2.54.67 3.11 1.24l2.13-2.08C11.69.8 9.93.01 7.82.01 3.51.01.01 3.59.01 8s3.5 7.99 7.81 7.99z"/></symbol><symbol viewBox="0 0 16 16" id="inst" xmlns="http://www.w3.org/2000/svg"><path class="hshp0" d="M15.59 13.24a4.143 4.143 0 01-2.34 2.34c-.51.2-1.09.33-1.94.37-.86.04-1.13.05-3.3.05s-2.45-.01-3.3-.05c-.85-.04-1.43-.17-1.94-.37a4.045 4.045 0 01-2.34-2.34c-.2-.51-.33-1.09-.37-1.94C.02 10.44.01 10.17.01 8s.01-2.45.05-3.3c.04-.85.17-1.43.37-1.94.2-.54.52-1.02.92-1.42.4-.41.89-.72 1.42-.92.51-.2 1.09-.34 1.94-.37C5.56.01 5.84 0 8.01 0s2.44.01 3.3.05c.85.03 1.43.17 1.94.37.53.2 1.02.51 1.42.92.4.4.72.88.92 1.42.2.51.33 1.09.37 1.94.04.85.05 1.13.05 3.3s-.01 2.44-.05 3.3c-.04.85-.17 1.43-.37 1.94zM8.01 3.89a4.11 4.11 0 100 8.22 4.11 4.11 0 000-8.22zm4.75-1.64c-.55 0-1 .45-1 1s.45 1 1 1 1-.45 1-1-.45-1-1-1zm-4.75 7.88c-1.18 0-2.13-.95-2.13-2.13s.95-2.13 2.13-2.13 2.13.95 2.13 2.13-.95 2.13-2.13 2.13z"/></symbol><symbol viewBox="0 0 20 19" id="instagram" xmlns="http://www.w3.org/2000/svg"><path class="ishp0" d="M19.99 19.01v-6.97c0-3.41-.77-6.04-4.96-6.04-2.02 0-3.37 1.05-3.93 2.05h-.06V6.32H7.07v12.69h4.14v-6.29c0-1.65.33-3.25 2.48-3.25 2.13 0 2.16 1.89 2.16 3.36v6.18h4.14zM.32 6.32h4.15v12.69H.32V6.32zM2.39.01c-1.32 0-2.4 1.02-2.4 2.28 0 1.26 1.08 2.3 2.4 2.3 1.33 0 2.41-1.04 2.41-2.3C4.8 1.03 3.72.01 2.39.01z"/></symbol><symbol viewBox="0 0 18 21" id="pinterest" xmlns="http://www.w3.org/2000/svg"><path class="jshp0" d="M9.31-.01C3.24-.01.01 3.68.01 7.7c0 1.87 1.1 4.19 2.86 4.93.27.12.41.07.47-.17.05-.18.28-1.04.4-1.44a.38.38 0 00-.1-.37c-.58-.64-1.05-1.81-1.05-2.9 0-2.81 2.36-5.53 6.36-5.53 3.46 0 5.88 2.13 5.88 5.18 0 3.45-1.92 5.83-4.42 5.83-1.38 0-2.41-1.03-2.09-2.3.4-1.52 1.17-3.15 1.17-4.24 0-.98-.58-1.79-1.78-1.79-1.4 0-2.55 1.32-2.55 3.09 0 1.13.42 1.89.42 1.89l-1.65 6.34c-.43 1.68.06 4.42.11 4.65.02.13.18.17.26.07.14-.18 1.82-2.45 2.29-4.1.18-.6.88-3.03.88-3.03.46.79 1.8 1.46 3.23 1.46 4.24 0 7.31-3.54 7.31-7.93-.02-4.2-3.81-7.35-8.7-7.35z"/></symbol><symbol viewBox="0 0 13 16" id="rubbish-bin" xmlns="http://www.w3.org/2000/svg"><path d="M11.74 1.99H8.99v-.5c0-.82-.67-1.5-1.49-1.5h-2c-.83 0-1.5.68-1.5 1.5v.5H1.25C.56 1.99 0 2.56 0 3.25V5c0 .27.23.5.5.5h.28l.43 9.07c.04.81.69 1.43 1.49 1.43h7.59c.8 0 1.46-.62 1.49-1.43l.44-9.07h.27c.27 0 .5-.23.5-.5V3.25c0-.69-.56-1.26-1.25-1.26zM5 1.49c0-.27.22-.5.5-.5h2a.5.5 0 01.49.5v.5H5v-.5zM1 3.25c0-.14.12-.25.25-.25h10.49c.14 0 .25.11.25.25V4.5H1V3.25zm9.79 11.28c-.02.26-.23.47-.5.47H2.7c-.26 0-.48-.21-.49-.47L1.78 5.5h9.44l-.43 9.03zM6.5 14c.27 0 .5-.22.5-.5V7c0-.28-.23-.5-.5-.5-.28 0-.5.22-.5.5v6.5c0 .28.22.5.5.5zm2.49 0c.28 0 .5-.22.5-.5V7c0-.28-.22-.5-.5-.5-.27 0-.5.22-.5.5v6.5c0 .28.23.5.5.5zM4 14c.28 0 .5-.22.5-.5V7c0-.28-.22-.5-.5-.5s-.5.22-.5.5v6.5c0 .28.22.5.5.5z"/></symbol><symbol viewBox="0 0 14 16" id="share" xmlns="http://www.w3.org/2000/svg"><path class="lshp0" d="M11.46 10.66c-.73 0-1.39.34-1.86.86L4.98 8.76c.07-.24.12-.5.12-.77s-.05-.52-.12-.77L9.6 4.46c.47.53 1.13.86 1.86.86 1.41 0 2.55-1.19 2.55-2.67 0-1.47-1.14-2.66-2.55-2.66-1.4 0-2.54 1.19-2.54 2.66 0 .22.03.43.08.63l-4.68 2.8c-.45-.47-1.08-.76-1.76-.76-1.41 0-2.55 1.2-2.55 2.67s1.14 2.67 2.55 2.67c.68 0 1.31-.29 1.76-.75L9 12.7c-.05.2-.08.41-.08.63 0 1.47 1.14 2.67 2.54 2.67 1.41 0 2.55-1.2 2.55-2.67s-1.14-2.67-2.55-2.67z"/></symbol><symbol viewBox="0 0 21 21" id="target" xmlns="http://www.w3.org/2000/svg"><path class="mshp0" d="M21 14.61c0 .2-.13.37-.32.43l-4.25 1.39-1.39 4.25a.45.45 0 01-.43.32.46.46 0 01-.43-.29l-3.65-9.59a.459.459 0 01.59-.59l9.59 3.65c.17.07.29.23.29.43zM9.62 19.25C4.32 19.25 0 14.93 0 9.62 0 4.32 4.32 0 9.62 0c5.31 0 9.63 4.32 9.63 9.62 0 .43-.03.85-.08 1.26a.87.87 0 01-.99.74.87.87 0 01-.75-.98c.05-.33.07-.67.07-1.02 0-4.34-3.53-7.87-7.88-7.87-4.34 0-7.87 3.53-7.87 7.87 0 4.35 3.53 7.88 7.87 7.88.35 0 .69-.02 1.02-.07.48-.06.92.27.98.75.07.48-.27.92-.74.99-.41.05-.83.08-1.26.08zm-.41-4.39h-.08a5.23 5.23 0 01-4.77-5.24c0-2.9 2.36-5.26 5.26-5.26 2.74 0 4.99 2.05 5.24 4.78.04.48-.31.9-.8.95-.49.03-.9-.32-.94-.8a3.496 3.496 0 00-3.5-3.18c-1.93 0-3.51 1.58-3.51 3.51a3.48 3.48 0 003.18 3.49c.48.05.83.48.79.96a.87.87 0 01-.87.79z"/></symbol></svg>